# xmcd
#
# Track frame offsets: 
#        150
#        26863
#        52742
#        110872
#        131526
#        150940
#        159879
#        185106
#        206338
#        216685
#        234925
#        252560
#
# Disc length: 3669 seconds
#
# Revision: 0
# Processed by: cddbd v1.5.2PL0 Copyright (c) Steve Scherf et al.
# Submitted via: ExactAudioCopy v0.95b4
#
DISCID=a60e530c
DTITLE=Aber das Leben lebt - Rectangles And Triangles As Signs For Lov
DTITLE=e And Pain
DYEAR=1999
DGENRE=
TTITLE0=I Know Who I Am - I Don't Know Who I Am, I Know Who You Are - 
TTITLE0=I Don't Know Who You Are
TTITLE1=Neither Poetry, Nor Elegance
TTITLE2=Songs Of The Suicide Man Number 10
TTITLE3=Each Thought
TTITLE4=Kjorkes Gharrd
TTITLE5=Jamnig
TTITLE6=The Blues Of Losing
TTITLE7=Die Molle
TTITLE8=Das Wollponcho-Girl
TTITLE9=Wished Love
TTITLE10=Wollponcho
TTITLE11=This Song Offends Everybody Who Really Suffers
EXTD=
EXTT0=
EXTT1=
EXTT2=
EXTT3=
EXTT4=
EXTT5=
EXTT6=
EXTT7=
EXTT8=
EXTT9=
EXTT10=
EXTT11=
PLAYORDER=
